# xmcd
#
# Track frame offsets: 
#        150
#        11770
#        22875
#        35325
#        46620
#        55577
#        68457
#        81125
#        94542
#        106097
#        121185
#        135220
#        147890
#        157395
#        168020
#        178017
#        190887
#        206322
#        217827
#        230080
#
# Disc length: 3240 seconds
#
# Revision: 3
# Processed by: cddbd v1.5.1PL0 Copyright (c) Steve Scherf et al.
# Submitted via: ExactAudioCopy v0.95a5
#
DISCID=f10ca614
DTITLE=Merle Haggard - The Lonesome Fugitive: The Merle Haggard Anthol
DTITLE=ogy (1963-1977) [Disc 1]
DYEAR=1995
DGENRE=Country
TTITLE0=Sing A Sad Song
TTITLE1=Sam Hill
TTITLE2=Just Between The Two Of Us (duet with Bonnie Owens)
TTITLE3=(My Friends Are Gonna Be) Strangers
TTITLE4=I'm Gonna Break Every Heart I Can
TTITLE5=Swinging Doors
TTITLE6=The Bottle Let Me Down
TTITLE7=The Fugitive
TTITLE8=Someone Told My Story
TTITLE9=I Threw Away The Rose
TTITLE10=Branded Man
TTITLE11=Sing Me Back Home
TTITLE12=The Legend Of Bonnie And Clyde
TTITLE13=Today I Started Loving You Again
TTITLE14=Mama Tried
TTITLE15=I Take A Lot Of Pride In What I Am
TTITLE16=Hungry Eyes
TTITLE17=Workin' Man Blues
TTITLE18=Okie From Muskogee
TTITLE19=The Fightin' Side Of Me
EXTD=YEAR: 1995 ID3G: 2
EXTT0=
EXTT1=
EXTT2=
EXTT3=
EXTT4=
EXTT5=
EXTT6=
EXTT7=
EXTT8=
EXTT9=
EXTT10=
EXTT11=
EXTT12=
EXTT13=
EXTT14=
EXTT15=
EXTT16=
EXTT17=
EXTT18=
EXTT19=
PLAYORDER=
